REM DIRINDEX 1\2,1\3,1\4,1\6,1\5\7,1\5\8
REM DIRNAME cjc114,folder01,folder02,folder03,folder04,folder05,folder06,folder07
TITLE ""
FILE "DB4500_5th_4B_37.mp3" MP3
  TRACK 01 AUDIO
    TITLE "0:"
    INDEX 01 00:00:00
  TRACK 02 AUDIO
    TITLE "2:cjc114_2954"
    INDEX 01 00:00:03
  TRACK 03 AUDIO
    TITLE "0:"
    INDEX 01 00:01:09
  TRACK 04 AUDIO
    TITLE "3:cjc114_2955"
    INDEX 01 00:01:38
  TRACK 05 AUDIO
    TITLE "0:"
    INDEX 01 00:02:55
  TRACK 06 AUDIO
    TITLE "4:cjc114_2956"
    INDEX 01 00:03:08
  TRACK 07 AUDIO
    TITLE "0:"
    INDEX 01 00:06:57
  TRACK 08 AUDIO
    TITLE "2:cjc114_2957"
    INDEX 01 00:07:37
  TRACK 09 AUDIO
    TITLE "0:"
    INDEX 01 00:08:64
  TRACK 10 AUDIO
    TITLE "3:cjc114_2958"
    INDEX 01 00:09:18
  TRACK 11 AUDIO
    TITLE "0:"
    INDEX 01 00:10:63
  TRACK 12 AUDIO
    TITLE "4:cjc114_2959"
    INDEX 01 00:11:17
  TRACK 13 AUDIO
    TITLE "0:"
    INDEX 01 00:13:63
  TRACK 14 AUDIO
    TITLE "2:cjc114_2960"
    INDEX 01 00:14:39
  TRACK 15 AUDIO
    TITLE "0:"
    INDEX 01 00:15:52
  TRACK 16 AUDIO
    TITLE "3:cjc114_2961"
    INDEX 01 00:16:02
  TRACK 17 AUDIO
    TITLE "0:"
    INDEX 01 00:17:49
  TRACK 18 AUDIO
    TITLE "4:cjc114_2962"
    INDEX 01 00:18:03
  TRACK 19 AUDIO
    TITLE "0:"
    INDEX 01 00:21:27
  TRACK 20 AUDIO
    TITLE "2:cjc114_2963"
    INDEX 01 00:22:05
  TRACK 21 AUDIO
    TITLE "0:"
    INDEX 01 00:23:14
  TRACK 22 AUDIO
    TITLE "3:cjc114_2964"
    INDEX 01 00:23:44
  TRACK 23 AUDIO
    TITLE "0:"
    INDEX 01 00:24:65
  TRACK 24 AUDIO
    TITLE "4:cjc114_2965"
    INDEX 01 00:25:19
  TRACK 25 AUDIO
    TITLE "0:"
    INDEX 01 00:27:71
  TRACK 26 AUDIO
    TITLE "2:cjc114_2966"
    INDEX 01 00:28:49
  TRACK 27 AUDIO
    TITLE "0:"
    INDEX 01 00:29:70
  TRACK 28 AUDIO
    TITLE "3:cjc114_2967"
    INDEX 01 00:30:22
  TRACK 29 AUDIO
    TITLE "0:"
    INDEX 01 00:31:41
  TRACK 30 AUDIO
    TITLE "4:cjc114_2968"
    INDEX 01 00:31:69
  TRACK 31 AUDIO
    TITLE "0:"
    INDEX 01 00:35:51
  TRACK 32 AUDIO
    TITLE "2:cjc114_2969"
    INDEX 01 00:36:31
  TRACK 33 AUDIO
    TITLE "0:"
    INDEX 01 00:37:36
  TRACK 34 AUDIO
    TITLE "3:cjc114_2970"
    INDEX 01 00:37:65
  TRACK 35 AUDIO
    TITLE "0:"
    INDEX 01 00:38:71
  TRACK 36 AUDIO
    TITLE "4:cjc114_2971"
    INDEX 01 00:39:23
  TRACK 37 AUDIO
    TITLE "0:"
    INDEX 01 00:43:17
  TRACK 38 AUDIO
    TITLE "2:cjc114_2972"
    INDEX 01 00:43:70
  TRACK 39 AUDIO
    TITLE "0:"
    INDEX 01 00:45:00
  TRACK 40 AUDIO
    TITLE "3:cjc114_2973"
    INDEX 01 00:45:28
  TRACK 41 AUDIO
    TITLE "0:"
    INDEX 01 00:46:33
  TRACK 42 AUDIO
    TITLE "4:cjc114_2974"
    INDEX 01 00:46:62
  TRACK 43 AUDIO
    TITLE "0:"
    INDEX 01 00:50:27
  TRACK 44 AUDIO
    TITLE "2:cjc114_2975"
    INDEX 01 00:51:07
  TRACK 45 AUDIO
    TITLE "0:"
    INDEX 01 00:52:16
  TRACK 46 AUDIO
    TITLE "3:cjc114_2976"
    INDEX 01 00:52:45
  TRACK 47 AUDIO
    TITLE "0:"
    INDEX 01 00:53:68
  TRACK 48 AUDIO
    TITLE "4:cjc114_2977"
    INDEX 01 00:54:21
  TRACK 49 AUDIO
    TITLE "0:"
    INDEX 01 00:57:62
  TRACK 50 AUDIO
    TITLE "2:cjc114_2978"
    INDEX 01 00:58:42
  TRACK 51 AUDIO
    TITLE "0:"
    INDEX 01 00:59:53
  TRACK 52 AUDIO
    TITLE "3:cjc114_2979"
    INDEX 01 01:00:06
  TRACK 53 AUDIO
    TITLE "0:"
    INDEX 01 01:01:21
  TRACK 54 AUDIO
    TITLE "4:cjc114_2980"
    INDEX 01 01:01:50
  TRACK 55 AUDIO
    TITLE "0:"
    INDEX 01 01:04:74
  TRACK 56 AUDIO
    TITLE "2:cjc114_2981"
    INDEX 01 01:05:54
  TRACK 57 AUDIO
    TITLE "0:"
    INDEX 01 01:07:02
  TRACK 58 AUDIO
    TITLE "3:cjc114_2982"
    INDEX 01 01:07:31
  TRACK 59 AUDIO
    TITLE "0:"
    INDEX 01 01:08:44
  TRACK 60 AUDIO
    TITLE "4:cjc114_2983"
    INDEX 01 01:08:70
  TRACK 61 AUDIO
    TITLE "0:"
    INDEX 01 01:12:15
  TRACK 62 AUDIO
    TITLE "2:cjc114_2984"
    INDEX 01 01:12:70
  TRACK 63 AUDIO
    TITLE "0:"
    INDEX 01 01:14:04
  TRACK 64 AUDIO
    TITLE "3:cjc114_2985"
    INDEX 01 01:14:33
  TRACK 65 AUDIO
    TITLE "0:"
    INDEX 01 01:15:68
  TRACK 66 AUDIO
    TITLE "4:cjc114_2986"
    INDEX 01 01:16:18
  TRACK 67 AUDIO
    TITLE "0:"
    INDEX 01 01:19:32
  TRACK 68 AUDIO
    TITLE "2:cjc114_2987"
    INDEX 01 01:20:10
  TRACK 69 AUDIO
    TITLE "0:"
    INDEX 01 01:21:33
  TRACK 70 AUDIO
    TITLE "3:cjc114_2988"
    INDEX 01 01:21:61
  TRACK 71 AUDIO
    TITLE "0:"
    INDEX 01 01:23:15
  TRACK 72 AUDIO
    TITLE "4:cjc114_2989"
    INDEX 01 01:23:40
  TRACK 73 AUDIO
    TITLE "0:"
    INDEX 01 01:26:32
  TRACK 74 AUDIO
    TITLE "2:cjc114_2990"
    INDEX 01 01:27:10
  TRACK 75 AUDIO
    TITLE "0:"
    INDEX 01 01:28:25
  TRACK 76 AUDIO
    TITLE "3:cjc114_2991"
    INDEX 01 01:28:53
  TRACK 77 AUDIO
    TITLE "0:"
    INDEX 01 01:30:05
  TRACK 78 AUDIO
    TITLE "4:cjc114_2992"
    INDEX 01 01:30:34
  TRACK 79 AUDIO
    TITLE "0:"
    INDEX 01 01:33:56
